<svg width="256" height="256" viewBox="0 0 256 256" fill="none" xmlns="http://www.w3.org/2000/svg">
<path d="M0 128C0 57.3076 57.3076 0 128 0C198.692 0 256 57.3076 256 128C256 198.692 198.692 256 128 256C57.3076 256 0 198.692 0 128Z" fill="black"/>
<mask id="mask0_201_3" style="mask-type:alpha" maskUnits="userSpaceOnUse" x="16" y="16" width="224" height="224">
<circle cx="128" cy="128" r="112" fill="#C4C4C4"/>
</mask>
<g mask="url(#mask0_201_3)">
<path d="M16 28C16 21.3726 21.3726 16 28 16H68C74.6274 16 80 21.3726 80 28C80 34.6274 74.6274 40 68 40H28C21.3726 40 16 34.6274 16 28Z" fill="#008700"/>
<path d="M96 28C96 21.3726 101.373 16 108 16H200C206.627 16 212 21.3726 212 28C212 34.6274 206.627 40 200 40H108C101.373 40 96 34.6274 96 28Z" fill="#008700"/>
<path d="M228 22C228 18.6863 230.686 16 234 16C237.314 16 240 18.6863 240 22V34C240 37.3137 237.314 40 234 40C230.686 40 228 37.3137 228 34V22Z" fill="#008700"/>
<path d="M16 68C16 61.3726 21.3726 56 28 56H54C60.6274 56 66 61.3726 66 68C66 74.6274 60.6274 80 54 80H28C21.3726 80 16 74.6274 16 68Z" fill="#008700"/>
<path d="M82 68C82 61.3726 87.3726 56 94 56H108C114.627 56 120 61.3726 120 68C120 74.6274 114.627 80 108 80H94C87.3726 80 82 74.6274 82 68Z" fill="#008700"/>
<path d="M136 68C136 61.3726 141.373 56 148 56H228C234.627 56 240 61.3726 240 68C240 74.6274 234.627 80 228 80H148C141.373 80 136 74.6274 136 68Z" fill="#008700"/>
<path d="M16 108C16 101.373 21.3726 96 28 96H90C96.6274 96 102 101.373 102 108C102 114.627 96.6274 120 90 120H28C21.3726 120 16 114.627 16 108Z" fill="#008700"/>
<path d="M118 108C118 101.373 123.373 96 130 96H188C194.627 96 200 101.373 200 108C200 114.627 194.627 120 188 120H130C123.373 120 118 114.627 118 108Z" fill="#008700"/>
<path d="M216 108C216 101.373 221.373 96 228 96C234.627 96 240 101.373 240 108C240 114.627 234.627 120 228 120C221.373 120 216 114.627 216 108Z" fill="#008700"/>
<path d="M16 148C16 141.373 21.3726 136 28 136H56C62.6274 136 68 141.373 68 148C68 154.627 62.6274 160 56 160H28C21.3726 160 16 154.627 16 148Z" fill="#008700"/>
<path d="M84 148C84 141.373 89.3726 136 96 136H106C112.627 136 118 141.373 118 148C118 154.627 112.627 160 106 160H96C89.3726 160 84 154.627 84 148Z" fill="#008700"/>
<path d="M134 148C134 141.373 139.373 136 146 136H228C234.627 136 240 141.373 240 148C240 154.627 234.627 160 228 160H146C139.373 160 134 154.627 134 148Z" fill="#008700"/>
<path d="M16 188C16 181.373 21.3726 176 28 176H68C74.6274 176 80 181.373 80 188C80 194.627 74.6274 200 68 200H28C21.3726 200 16 194.627 16 188Z" fill="#008700"/>
<path d="M96 188C96 181.373 101.373 176 108 176H132C138.627 176 144 181.373 144 188C144 194.627 138.627 200 132 200H108C101.373 200 96 194.627 96 188Z" fill="#008700"/>
<path d="M160 188C160 181.373 165.373 176 172 176H228C234.627 176 240 181.373 240 188C240 194.627 234.627 200 228 200H172C165.373 200 160 194.627 160 188Z" fill="#008700"/>
<path d="M16 228C16 221.373 21.3726 216 28 216H44C50.6274 216 56 221.373 56 228C56 234.627 50.6274 240 44 240H28C21.3726 240 16 234.627 16 228Z" fill="#008700"/>
<path d="M72 228C72 221.373 77.3726 216 84 216H126C132.627 216 138 221.373 138 228C138 234.627 132.627 240 126 240H84C77.3726 240 72 234.627 72 228Z" fill="#008700"/>
<path d="M154 228C154 221.373 159.373 216 166 216H228C234.627 216 240 221.373 240 228C240 234.627 234.627 240 228 240H166C159.373 240 154 234.627 154 228Z" fill="#008700"/>
</g>
</svg>
